{"title":"Jack And Jill 2011 TS READNFO XViD DTRG","uid":6853404,"size":1751141880,"categoryP":"video","categoryS":"movies","magnet":"?xt=urn:btih:fc9a5efc74faa7df1f440fe469b880db9aaf7a00&amp;dn=Jack+And+Jill+2011+TS+READNFO+XViD+DTRG&amp;tr=udp%3A%2F%2Ftracker.openbittorrent.com%3A80&amp;tr=udp%3A%2F%2Fopen.demonii.com%3A1337&amp;tr=udp%3A%2F%2Ftracker.coppersurfer.tk%3A6969&amp;tr=udp%3A%2F%2Fexodus.desync.com%3A6969","seeders":1,"leechers":0,"uploader":".BONE.","files":2,"time":1322605972,"description":"Format : AVI\nFormat/Info : Audio Video Interleave\nFile size : 1.62 GiB\nDuration : 1h 28mn\nOverall bit rate : 2 611 Kbps\nWriting library : VirtualDub build 32842/release\n\nVideo\nID : 0\nFormat : MPEG-4 Visual\nFormat profile : Advanced Simple@L5\nFormat settings, BVOP : 1\nFormat settings, QPel : No\nFormat settings, GMC : No warppoints\nFormat settings, Matrix : Default (H.263)\nMuxing mode : Packed bitstream\nCodec ID : XVID\nCodec ID/Hint : XviD\nDuration : 1h 28mn\nBit rate : 2 474 Kbps\nWidth : 624 pixels\nHeight : 352 pixels\nDisplay aspect ratio : 16:9\nFrame rate : 23.976 fps\nColor space : YUV\nChroma subsampling : 4:2:0\nBit depth : 8 bits\nScan type : Progressive\nCompression mode : Lossy\nBits/(Pixel*Frame) : 0.470\nStream size : 1.53 GiB (95%)\nWriting library : XviD 64\n\nAudio\nID : 1\nFormat : MPEG Audio\nFormat version : Version 1\nFormat profile : Layer 3\nCodec ID : 55\nCodec ID/Hint : MP3\nDuration : 1h 28mn\nBit rate mode : Constant\nBit rate : 128 Kbps\nChannel(s) : 2 channels\nSampling rate : 44.1 KHz\nCompression mode : Lossy\nDelay relative to video : 15ms\nStream size : 81.2 MiB (5%)\nAlignment : Split accross interleaves\nInterleave, duration : 42 ms (1.00 video frame)\nInterleave, preload duration : 500 ms\n\n &lt;a href=&quot;\nhttp://www.imdb.com/title/tt0810913/&quot; rel=&quot;nofollow&quot; target=&quot;_NEW&quot;&gt;\nhttp://www.imdb.com/title/tt0810913/&lt;/a&gt;\n\n\nRatings: 2.8/10 from 3,646 users Metascore: 23/100\nReviews: 47 user | 43 critic | 26 from Metacritic.com\n\nFamily guy Jack Sadelstein prepares for the annual event he dreads: the Thanksgiving visit of his twin sister, the needy and passive-aggressive Jill, who then refuses to leave.\nDirector:\nDennis Dugan\nWriters:\nAdam Sandler (screenplay), Steve Koren (screenplay), and 1 more credit Ã‚Â»\nStars:\nAdam Sandler, Katie Holmes and Al Pacino\n\n\n1st 30 mins\n &lt;a href=&quot;\nhttp://img843.imageshack.us/img843/6346/vlcsnap2011112915h31m40.png&quot; rel=&quot;nofollow&quot; target=&quot;_NEW&quot;&gt;\nhttp://img843.imageshack.us/img843/6346/vlcsnap2011112915h31m40.png&lt;/a&gt;\n\n\nThen after 30 mins\n &lt;a href=&quot;\nhttp://img217.imageshack.us/img217/6408/vlcsnap2011112915h32m23.png&quot; rel=&quot;nofollow&quot; target=&quot;_NEW&quot;&gt;\nhttp://img217.imageshack.us/img217/6408/vlcsnap2011112915h32m23.png&lt;/a&gt;\n &lt;a href=&quot;\nhttp://img710.imageshack.us/img710/526/vlcsnap2011112915h43m37.png&quot; rel=&quot;nofollow&quot; target=&quot;_NEW&quot;&gt;\nhttp://img710.imageshack.us/img710/526/vlcsnap2011112915h43m37.png&lt;/a&gt;\n &lt;a href=&quot;\nhttp://img689.imageshack.us/img689/2538/vlcsnap2011112915h35m05.png&quot; rel=&quot;nofollow&quot; target=&quot;_NEW&quot;&gt;\nhttp://img689.imageshack.us/img689/2538/vlcsnap2011112915h35m05.png&lt;/a&gt;\n\n\nSource Used\n\n\nFYA ........Thanksy\n\n\nSame reason for READNFO as the others 1st 30mins is whacked you gonna have bad eyes watching it tbh ..Then after that vid is good good\n\n\nCheck out the sample\n\nI did go to cut the 1st 30 mins and filter it but tbh i started and nothing can be done with it so just went back to doing what i could\n\n\n\n\nEnjoy\n","torrent":{"xt":"urn:btih:fc9a5efc74faa7df1f440fe469b880db9aaf7a00","amp;dn":"Jack+And+Jill+2011+TS+READNFO+XViD+DTRG","amp;tr":["udp%3A%2F%2Ftracker.openbittorrent.com%3A80","udp%3A%2F%2Fopen.demonii.com%3A1337","udp%3A%2F%2Ftracker.coppersurfer.tk%3A6969","udp%3A%2F%2Fexodus.desync.com%3A6969"],"infoHash":"fc9a5efc74faa7df1f440fe469b880db9aaf7a00","infoHashBuffer":{"type":"Buffer","data":[252,154,94,252,116,250,167,223,31,68,15,228,105,184,128,219,154,175,122,0]},"announce":[],"urlList":[]}}